<svg width="30" height="21" viewBox="0 0 30 21" fill="none" xmlns="http://www.w3.org/2000/svg">
<path d="M18.9674 0C13.1534 0 8.48145 4.70331 8.48145 10.4518C8.48145 16.2477 13.1994 20.9036 18.966 20.9036C24.7326 20.9036 29.4547 16.2003 29.4547 10.4518C29.4547 4.70331 24.734 0 18.9674 0ZM18.9674 14.3475C16.8227 14.3475 15.0598 12.5895 15.0598 10.4518C15.0598 8.31405 16.8227 6.55606 18.9674 6.55606C21.1121 6.55606 22.8757 8.31405 22.8757 10.4518C22.8276 12.5895 21.1121 14.3475 18.9674 14.3475Z" fill="#8B3FFD"/>
<path d="M8.48128 3.03516V18.2376H4.76602L0 3.03516H8.48128Z" fill="#8B3FFD"/>
</svg>
