<svg width="160" height="21" viewBox="0 0 160 21" fill="none" xmlns="http://www.w3.org/2000/svg">
<path d="M52.622 1.04413C55.1815 0.940159 57.9377 1.0583 60.52 1.01579C62.1791 1.03476 63.8651 0.966572 65.5183 1.08087C66.8767 1.17476 68.4573 2.51871 68.7802 3.81992C69.1135 5.16243 68.9918 7.08603 68.9904 8.49289L68.9801 14.1532C68.9786 14.7173 68.9389 16.2684 69.0486 16.7638C69.3778 17.1571 70.0594 16.8066 70.5822 17.125C71.1843 17.4919 71.0343 20.4732 70.7614 20.861C70.2309 21.0672 66.307 20.9784 65.4299 20.976L53.5995 20.9767C52.8395 20.977 47.5738 21.0814 47.1991 20.8459C46.9279 20.2981 47.0705 19.0053 47.0125 18.3726C46.9516 17.708 47.093 16.959 47.887 16.9569C48.2449 16.9562 48.9992 17.0743 49.025 16.5621C49.0612 15.8446 49.049 15.107 49.0483 14.3825L49.042 7.92381C49.0411 6.75538 48.9615 5.38117 49.13 4.24517C49.3976 2.43779 50.9326 1.30922 52.622 1.04413ZM64.505 16.9715C64.6617 16.8894 64.8508 16.8099 64.9229 16.6354C65.0666 16.2874 65.0003 7.07618 64.9787 6.09169C64.9737 5.8679 64.9816 5.48563 64.8776 5.29257C64.8024 5.15258 64.6502 5.13697 64.5034 5.10576C63.8601 4.96889 63.1437 5.03036 62.4875 5.033L59.4967 5.04165L55.4973 5.03948C54.8741 5.03924 53.9095 5.00851 53.3072 5.05149C53.1991 5.13193 53.0652 5.23254 53.0609 5.38286C52.9586 8.95584 53.0362 12.5435 53.0355 16.1198C53.0355 16.3141 53.0726 16.5984 53.1558 16.7741C53.2437 16.9326 53.3436 16.9408 53.5226 16.9559C54.2557 17.0183 55.0425 16.9999 55.779 17.0006L59.9936 17.0027L62.9767 17.002C63.3557 17.0018 64.1706 17.0243 64.505 16.9715Z" fill="#FEFEFE"/>
<path d="M23.5629 1.05923C24.2784 1.00912 26.144 0.958536 26.8385 1.13955C27.0881 1.20453 27.1878 1.50855 27.2047 1.74159C27.286 2.86487 27.2409 4.12721 27.2372 5.25408L27.2392 12.0978C27.2392 12.5649 27.2009 14.1216 27.3303 14.4472C27.834 14.4268 30.4072 11.3641 30.923 10.7949L37.0936 3.98359C37.8964 3.09648 38.8387 1.94155 39.7703 1.21244C40.0783 0.971483 43.6812 0.830262 43.8595 1.38315C44.0819 2.07222 43.9252 3.25904 43.9366 4.04185C44.0088 8.21848 44.0194 12.3961 43.968 16.5732C43.9625 17.7809 44.0552 19.4328 43.8806 20.64C43.8534 20.828 43.6938 20.8824 43.5477 20.9574C42.5512 20.9872 41.0407 21.0435 40.0888 20.8795C39.6547 20.8045 39.7829 17.6051 39.7829 17.1138L39.7854 10.1378C39.7844 9.65537 39.8272 7.9768 39.6851 7.57496L39.5648 7.54212C39.2283 7.61572 36.426 10.834 35.9122 11.4027C34.0794 13.4457 32.2327 15.4775 30.3724 17.4979C29.6487 18.2971 28.082 20.2578 27.2301 20.7711C27.0493 20.88 26.8579 20.9284 26.6474 20.9553C26.1936 21.0133 23.8604 21.0262 23.4693 20.9246C23.3567 20.8953 23.2461 20.863 23.1867 20.7625C23.0349 20.5048 23.0497 20.0466 23.0424 19.7536C22.9477 16.0191 23.0412 12.2599 23.0412 8.52322C23.0412 7.54092 22.9344 1.89672 23.1149 1.4124C23.2008 1.18199 23.3456 1.14794 23.5629 1.05923Z" fill="#FEFEFE"/>
<path d="M9.44249 1.03617C9.82583 0.994149 10.3437 1.00447 10.7339 1.00519C13.7704 1.01264 16.8064 0.983583 19.8428 1.0148C20.5286 1.02176 20.9478 1.03497 20.9717 1.79903C21.006 2.89709 20.9943 3.99515 20.9941 5.09369L20.9933 11.1521L20.9951 16.9932C20.9953 18.0771 21.017 19.1903 20.9673 20.2713C20.9528 20.5864 20.9465 20.6709 20.7551 20.8812C20.3398 21.0616 18.3769 20.9847 17.8089 20.9782C17.5882 20.9756 17.0187 20.99 16.8871 20.7962C16.4695 20.1815 16.9744 7.87882 16.7166 5.73865C16.6929 5.54223 16.6733 5.30667 16.5207 5.15876C15.9307 4.92945 12.5633 5.02381 11.723 5.02525C11.1653 5.01997 9.28987 4.94362 8.93473 5.12586C8.53119 5.33261 7.70371 8.6993 7.59156 9.09694L5.52348 16.3692C5.33299 17.0413 4.51572 20.5098 3.99308 20.8623C3.69502 21.0632 1.57617 20.9516 1.09124 20.9679C0.185254 20.9984 -0.203555 20.9105 0.103767 19.9467C0.422922 18.8172 0.759077 17.6769 1.08816 16.5425L2.42018 11.8172C3.08134 9.48305 3.71174 7.12557 4.44292 4.81203C5.15136 2.57004 7.05136 1.30006 9.44249 1.03617Z" fill="#FEFEFE"/>
<path d="M82.3444 1.05091C83.7633 0.954264 86.3594 1.04203 87.8099 1.01781C88.781 1.00151 93.0424 0.94851 93.7985 1.16266C94.0824 1.88806 93.9832 8.15008 93.9834 9.39658L93.9806 19.5938C93.9773 19.9734 94.0268 20.5911 93.7623 20.8365C92.9873 21.0782 91.5903 20.9885 90.7539 20.9602C90.5169 20.952 90.0046 20.9585 89.8646 20.759C89.5081 20.2516 89.9587 7.90428 89.743 5.87074C89.7177 5.63453 89.6861 5.33669 89.5071 5.15756C88.9141 4.9403 85.5675 5.0331 84.7293 5.03478C83.9655 5.03142 83.1931 5.02039 82.4298 5.01967C82.3525 5.00648 81.8662 5.08634 81.8313 5.15564C81.2723 6.26162 80.7694 8.40355 80.4498 9.52656L78.4923 16.3795C78.2518 17.2308 77.5046 20.3209 76.989 20.8437C76.5371 21.0192 73.6574 21.013 73.2142 20.9019C72.8982 20.6276 73.0012 20.1597 73.0885 19.8022C73.3323 18.8036 73.6834 17.8233 73.967 16.8382L75.5124 11.3877L76.6934 7.22611C76.913 6.45274 77.1213 5.68321 77.371 4.91775C78.1136 2.64321 79.885 1.35426 82.3444 1.05091Z" fill="#FEFEFE"/>
<path d="M122 7.01781C123.552 6.98347 125.193 7.0188 126.753 7.0098C128.037 7.00247 129.61 6.97513 130.863 7.06314C131.435 7.3615 134.914 10.6848 134.934 11.1992C135.042 13.9351 134.938 16.7494 135 19.4973C135.008 19.8693 134.504 20.2117 134.235 20.4114C133.17 21.1868 131.775 20.9601 130.479 20.9874C127.656 21.0474 124.834 20.8667 122.008 20.9881C122.04 16.3313 122.037 11.6742 122 7.01781ZM125.918 13.3787C125.955 14.7572 125.843 16.6577 125.93 17.9215C127.775 17.8951 129.621 17.8998 131.466 17.9351C131.452 16.091 131.437 14.1088 131.511 12.2746C130.794 11.3202 130.328 10.8938 129.422 10.0944C128.415 10.0444 127.391 10.1484 126.374 10.0271L126.043 10.0961C125.795 10.5245 125.961 12.0833 125.917 12.7267L125.918 13.3787Z" fill="#009FE5"/>
<path d="M148.062 7.06471C151.766 6.91541 156.192 7.07701 160 7.03545C159.996 7.91964 159.983 8.80383 159.961 9.68803C157.333 9.71496 154.662 9.69235 152.031 9.69435C152.065 10.5563 152.051 11.4248 152.046 12.2874C154.691 12.2954 157.336 12.2891 159.981 12.2691C159.991 13.3103 160.013 14.3268 159.949 15.3666L153.604 15.3267L152.001 15.3307C152.074 16.2169 152.059 17.0452 152.054 17.9321C154.695 17.9361 157.336 17.9278 159.976 17.9062C160.001 18.9034 159.983 19.9589 159.983 20.9608C158.068 20.9345 156.124 20.9957 154.201 20.9917C152.189 20.9877 150.055 20.8806 148.06 21C147.919 18.1246 148.081 14.9184 148.02 12.0121C148.005 11.2389 147.968 7.50831 148.062 7.06471Z" fill="#009FE5"/>
<path d="M103 7.0184C104.376 6.99937 105.751 6.99503 107.127 7.00571L107.149 17.9584C109.943 17.8793 113.17 17.909 115.978 17.9317C116.01 18.8806 116.005 20.0424 115.978 20.9913C113.922 20.9195 111.843 21.0026 109.787 20.9999C107.515 20.9969 105.276 20.9372 103.004 20.9943C103.05 17.4162 102.973 13.8235 103.019 10.2442C103.033 9.17616 103.034 8.08576 103 7.0184Z" fill="#009FE5"/>
<path d="M135 7.02428C136.337 6.9759 137.939 7.0146 139.296 7.0156C139.254 10.5682 139.408 14.4314 139.259 17.9355C141.035 17.9162 142.812 17.9102 144.588 17.9185C145.398 17.9192 147.07 17.8825 147.809 17.9956C148.031 18.3172 148.042 20.4722 147.932 20.8802L147.733 20.9857C145.524 20.9066 143.189 20.9923 140.972 20.9867C138.999 20.9816 137.014 20.9339 135.046 21C135.005 19.6741 135.078 18.0296 135.081 16.6664C135.105 13.4521 135.078 10.2379 135 7.02428Z" fill="#009FE5"/>
<path d="M116.024 7.05292C117.323 6.96089 119.626 7.01757 121 7.01424C120.923 11.6325 120.985 16.3668 120.988 20.994C119.459 20.927 117.668 20.9503 116.138 21C115.963 18.3274 116.066 15.1597 116.038 12.4671C116.021 10.7699 115.97 8.72483 116.024 7.05292Z" fill="#009FE5"/>
</svg>
