<svg width="120" height="120" viewBox="0 0 120 120" fill="none" xmlns="http://www.w3.org/2000/svg">
<path d="M27.6 13.2L19.8 23.6C18.2551 25.6599 17.4826 26.6898 17.5005 27.552C17.5161 28.3022 17.8679 29.0058 18.4588 29.4684C19.1377 30 20.4251 30 23 30H97C99.5749 30 100.862 30 101.541 29.4684C102.132 29.0058 102.484 28.3022 102.499 27.552C102.517 26.6898 101.745 25.6599 100.2 23.6L92.4 13.2M27.6 13.2C28.48 12.0267 28.92 11.44 29.4776 11.0169C29.9715 10.6421 30.5308 10.3625 31.1269 10.1922C31.8 10 32.5333 10 34 10H86C87.4667 10 88.2 10 88.8731 10.1922C89.4692 10.3625 90.0285 10.6421 90.5224 11.0169C91.08 11.44 91.52 12.0267 92.4 13.2M27.6 13.2L18.2 25.7333C17.0127 27.3164 16.419 28.1079 15.9975 28.9796C15.6234 29.7531 15.3506 30.5716 15.1858 31.4148C15 32.3651 15 33.3545 15 35.3333L15 94C15 99.6005 15 102.401 16.0899 104.54C17.0487 106.422 18.5785 107.951 20.4601 108.91C22.5992 110 25.3995 110 31 110L89 110C94.6005 110 97.4008 110 99.5399 108.91C101.422 107.951 102.951 106.422 103.91 104.54C105 102.401 105 99.6005 105 94V35.3333C105 33.3545 105 32.3651 104.814 31.4148C104.649 30.5716 104.377 29.7531 104.003 28.9796C103.581 28.1079 102.987 27.3164 101.8 25.7333L92.4 13.2M80 50C80 55.3043 77.8929 60.3914 74.1421 64.1421C70.3914 67.8929 65.3043 70 60 70C54.6957 70 49.6086 67.8929 45.8579 64.1421C42.1071 60.3914 40 55.3043 40 50" stroke="#EAEF00" stroke-width="5" stroke-linecap="round" stroke-linejoin="round"/>
</svg>
