<svg width="120" height="120" viewBox="0 0 120 120" fill="none" xmlns="http://www.w3.org/2000/svg">
<path d="M60 108.469C65.5228 108.469 70 103.992 70 98.4688C70 92.9459 65.5228 88.4688 60 88.4688C54.4772 88.4688 50 92.9459 50 98.4688C50 103.992 54.4772 108.469 60 108.469Z" fill="#EAEF00"/>
<path d="M97.2667 59.0344L97.6333 58.4677C97.9952 57.9068 98.2419 57.2794 98.3591 56.6223C98.4762 55.9651 98.4615 55.2911 98.3157 54.6397C98.1699 53.9882 97.8959 53.3723 97.5098 52.8278C97.1237 52.2832 96.6332 51.8209 96.0667 51.4677C85.2285 44.7723 72.7394 41.2287 60 41.2344C58.1333 41.2344 56.3 41.2344 54.5 41.4677L65.2 52.1677C74.1824 52.9615 82.8562 55.8376 90.5333 60.5677C91.6353 61.2355 92.9537 61.4489 94.2101 61.1628C95.4665 60.8767 96.5625 60.1135 97.2667 59.0344Z" fill="#EAEF00"/>
<path d="M109.196 31.2696C98.0872 24.3408 85.6403 19.8359 72.6699 18.0495C59.6996 16.263 46.4983 17.2354 33.9297 20.9029L42.6964 29.6695C63.6409 25.1732 85.5134 29.0239 103.663 40.4029C104.759 41.0503 106.062 41.2522 107.302 40.9669C108.543 40.6816 109.627 39.9308 110.33 38.8696L110.696 38.3029C111.067 37.7447 111.322 37.1183 111.447 36.4603C111.572 35.8023 111.564 35.126 111.424 34.471C111.285 33.816 111.016 33.1954 110.633 32.6457C110.251 32.096 109.762 31.6281 109.196 31.2696Z" fill="#EAEF00"/>
<path d="M9.99725 15.8328L20.3306 26.1661C16.983 27.7116 13.7326 29.4593 10.5972 31.3995C10.0235 31.7499 9.5257 32.2118 9.13336 32.7578C8.74101 33.3038 8.46203 33.9229 8.31289 34.5785C8.16375 35.2341 8.14747 35.9129 8.26501 36.5749C8.38255 37.2369 8.63153 37.8686 8.99725 38.4328L9.36392 38.9995C10.0669 40.0607 11.1506 40.8115 12.3912 41.0968C13.6318 41.3822 14.9346 41.1803 16.0306 40.5328C19.9242 38.0835 24.0163 35.965 28.2639 34.1995L38.7306 44.6661C33.434 46.369 28.3636 48.7083 23.6306 51.6328C23.0668 51.9887 22.5793 52.453 22.1965 52.9988C21.8136 53.5446 21.543 54.161 21.4003 54.8122C21.2577 55.4635 21.2458 56.1366 21.3655 56.7924C21.4851 57.4483 21.7338 58.0739 22.0972 58.6328L22.4639 59.1995C23.1669 60.2607 24.2506 61.0115 25.4912 61.2968C26.7318 61.5822 28.0346 61.3803 29.1306 60.7328C34.7852 57.2351 40.9973 54.7322 47.4972 53.3328L59.4972 65.3328C51.5132 65.4142 43.6971 67.6359 36.8639 71.7662C36.3013 72.1188 35.8145 72.5801 35.432 73.1229C35.0495 73.6658 34.779 74.2794 34.6363 74.9279C34.4936 75.5765 34.4814 76.2469 34.6006 76.9002C34.7198 77.5535 34.968 78.1765 35.3306 78.7328L35.6639 79.2662C36.3974 80.3502 37.522 81.1084 38.802 81.3818C40.082 81.6552 41.4182 81.4226 42.5306 80.7328C47.0168 78.0679 52.0561 76.4713 57.2584 76.0667C62.4607 75.6621 67.6863 76.4603 72.5306 78.3995L96.6639 102.499L101.364 97.7995L14.6972 11.1328L9.99725 15.8328Z" fill="#EAEF00"/>
</svg>
