<svg width="27" height="27" viewBox="0 0 27 27" fill="none" xmlns="http://www.w3.org/2000/svg">
<path d="M18.4641 23.3796C18.2842 23.3803 18.1067 23.3379 17.9466 23.2559L12.2091 20.2521L6.47158 23.2559C6.28528 23.3538 6.07522 23.3976 5.8653 23.3821C5.65537 23.3666 5.454 23.2926 5.28407 23.1683C5.11414 23.0441 4.98247 22.8747 4.90403 22.6794C4.82558 22.484 4.80352 22.2706 4.84033 22.0634L5.96533 15.7296L1.33033 11.2296C1.18572 11.0853 1.08314 10.9044 1.03359 10.7062C0.98404 10.508 0.989397 10.3 1.04908 10.1046C1.11429 9.90468 1.23423 9.72702 1.3953 9.5918C1.55637 9.45658 1.75212 9.36922 1.96033 9.33962L8.37283 8.40587L11.1966 2.63462C11.2887 2.44442 11.4325 2.28401 11.6116 2.17177C11.7907 2.05953 11.9977 2 12.2091 2C12.4204 2 12.6275 2.05953 12.8066 2.17177C12.9856 2.28401 13.1295 2.44442 13.2216 2.63462L16.0791 8.39462L22.4916 9.32837C22.6998 9.35797 22.8955 9.44533 23.0566 9.58055C23.2177 9.71577 23.3376 9.89343 23.4028 10.0934C23.4625 10.2888 23.4679 10.4967 23.4183 10.6949C23.3688 10.8931 23.2662 11.0741 23.1216 11.2184L18.4866 15.7184L19.6116 22.0521C19.6517 22.263 19.6307 22.481 19.551 22.6804C19.4712 22.8797 19.3361 23.0521 19.1616 23.1771C18.9579 23.3199 18.7126 23.3911 18.4641 23.3796Z" fill="#7A7A7A"/>
</svg>
