<svg width="24" height="24" viewBox="0 0 24 24" fill="none" xmlns="http://www.w3.org/2000/svg">
<path d="M10.5004 11.9988H5.00043M4.91577 12.2903L2.58085 19.265C2.39742 19.813 2.3057 20.0869 2.37152 20.2556C2.42868 20.4022 2.55144 20.5132 2.70292 20.5555C2.87736 20.6042 3.14083 20.4856 3.66776 20.2485L20.3792 12.7284C20.8936 12.4969 21.1507 12.3812 21.2302 12.2204C21.2993 12.0808 21.2993 11.9169 21.2302 11.7772C21.1507 11.6164 20.8936 11.5007 20.3792 11.2693L3.66193 3.74654C3.13659 3.51013 2.87392 3.39193 2.69966 3.44042C2.54832 3.48253 2.42556 3.59332 2.36821 3.73956C2.30216 3.90795 2.3929 4.18133 2.57437 4.72809L4.91642 11.7843C4.94759 11.8782 4.96317 11.9252 4.96933 11.9732C4.97479 12.0158 4.97473 12.059 4.96916 12.1016C4.96289 12.1496 4.94718 12.1965 4.91577 12.2903Z" stroke="#009EE2" stroke-width="2" stroke-linecap="round" stroke-linejoin="round"/>
</svg>
