<svg width="16" height="16" viewBox="0 0 16 16" fill="none" xmlns="http://www.w3.org/2000/svg">
<g clip-path="url(#clip0_4187_3378)">
<path d="M14.6666 7.39309V8.00642C14.6658 9.44404 14.2003 10.8429 13.3395 11.9943C12.4787 13.1457 11.2688 13.9881 9.89016 14.3957C8.51154 14.8033 7.03809 14.7544 5.68957 14.2561C4.34104 13.7579 3.18969 12.8372 2.40723 11.6311C1.62476 10.4251 1.25311 8.99846 1.3477 7.56396C1.44229 6.12946 1.99806 4.76397 2.93211 3.67114C3.86615 2.5783 5.12844 1.81667 6.53071 1.49985C7.93298 1.18303 9.4001 1.32798 10.7133 1.91309M14.6666 2.66927L7.99992 9.3426L5.99992 7.3426" stroke="#19D849" stroke-width="2" stroke-linecap="round" stroke-linejoin="round"/>
</g>
<defs>
<clipPath id="clip0_4187_3378">
<rect width="16" height="16" fill="white"/>
</clipPath>
</defs>
</svg>
