<?xml version="1.0" encoding="utf-8" ?><svg xmlns="http://www.w3.org/2000/svg" xmlns:xlink="http://www.w3.org/1999/xlink" width="512" height="512" viewBox="0 0 512 512"><path d="M72.7896 0L290.172 0L290.413 0.0747156C295.767 1.69297 300.543 1.8844 306.756 3.86813C325.916 10.1787 341.991 23.4833 351.772 41.1257C356.742 50.2964 360.402 60.6284 361.114 71.1293C361.81 81.3997 361.419 91.8222 361.543 102.116C361.53 107.398 361.902 122.848 360.625 126.992C359.167 131.576 355.941 135.39 351.663 137.589C342.295 142.48 328.832 139.256 324.192 129.355C321.758 124.16 322.268 117.732 322.274 112.106L322.294 93.0911C322.303 75.279 321.482 60.0229 305.948 48.3212C293.609 39.0264 280.679 39.6706 265.943 39.6812L244.518 39.6989L178.682 39.7053L115.752 39.7051L95.6243 39.6804C85.4443 39.6631 73.7564 39.4884 64.3399 43.8591C54.5792 48.3895 46.9922 56.8553 43.2816 66.9178C40.1553 75.4666 40.5116 87.2039 40.5269 96.2891L40.5557 115.134L40.5486 155.756L40.5465 260.702L40.5454 373.699L40.5376 410.341C40.5233 427.71 38.4363 444.517 51.1896 458.461C64.2013 472.688 78.4104 472.333 96.0956 472.278L118.24 472.257L189.81 472.256L249.797 472.254L268.989 472.278C278.86 472.288 289.927 472.433 298.862 467.99C309.995 462.456 318.339 452.338 320.884 440.173C321.132 438.989 321.529 432.877 322.002 432.362C322.704 432.207 322.474 432.337 323.002 431.877C323.201 426.913 323.771 387.356 323.156 385.068C325.132 379.813 328.056 376.3 333.236 373.876C337.724 371.777 345.494 371.882 350.057 373.703C354.514 375.469 358.058 378.978 359.867 383.418C361.67 387.726 361.761 395.762 361.537 400.535C360.906 414.013 362.604 430.081 360.958 443.303C360.15 450.203 358.366 456.953 355.659 463.352C345.94 486.509 322.588 506.646 297.043 510.512C294.508 510.896 293.073 511.142 290.643 512L72.3776 512C68.4651 510.735 65.4271 510.646 61.6355 509.764C55.5298 508.344 49.5772 505.943 44.0461 503.033C25.0517 492.978 10.7791 475.849 4.31554 455.352C0.907392 444.332 1.19602 434.915 1.18522 423.537L1.18576 403.423L1.18574 353.552L1.18585 204.52L1.18328 117.036L1.18406 90.0581C1.18265 70.9096 1.03363 59.8768 10.2747 42.3522C20.197 23.8165 36.9595 9.88335 56.9966 3.51636C62.8849 1.65636 67.2642 1.70808 72.7896 0Z"/><path d="M198.16 250.049C204.818 234.337 217.464 237.256 231.904 237.261L267.541 237.262L417.884 237.26L443.725 237.275C445.726 237.282 455.39 237.437 456.488 237.105C456.768 236.55 456.762 236.433 456.063 235.744L434.491 214.282C429.788 209.582 422.197 203.264 420.21 197.083C416.635 184.627 424.314 172.307 437.491 171.393C450.15 170.514 454.528 177.793 462.832 186.127L478.858 202.113L493.15 216.408C495.738 218.999 498.497 221.621 500.922 224.347C503.674 227.445 505.492 230.971 507.485 234.54C509.736 238.571 509.829 242.113 512 246.29L512 267.727C510.669 270.537 510.305 272.728 509.319 275.607C506.127 284.921 499.458 291.379 492.764 298.062L481.447 309.352C472.192 318.598 463.011 327.945 453.663 337.134C440.756 349.822 418.128 340.142 419.368 321.755C419.857 314.497 422.789 310.989 427.889 306.111C437.798 296.634 447.195 286.212 457.291 276.952C453.406 276.367 441.805 276.695 437.233 276.7L397.061 276.703L253.94 276.702L231.391 276.705C225.903 276.706 220.364 276.789 214.875 276.592C207.384 276.323 202.05 271.975 198.699 265.395C198.831 265.158 199.128 264.659 199.088 264.383C198.584 260.889 198.534 257.295 198.535 253.771C198.535 252.277 198.486 251.486 198.16 250.049Z"/><path d="M322.002 432.362C322.413 427.862 322.292 423.246 322.287 418.721L322.273 400.358C322.273 396.149 321.991 388.889 323.156 385.068C323.771 387.356 323.201 426.913 323.002 431.877C322.474 432.337 322.704 432.207 322.002 432.362Z"/><path d="M198.699 265.395C196.987 261.118 196.841 254.398 198.16 250.049C198.486 251.486 198.535 252.277 198.535 253.771C198.534 257.295 198.584 260.889 199.088 264.383C199.128 264.659 198.831 265.158 198.699 265.395Z"/></svg>