<svg width="20" height="20" viewBox="0 0 20 20" fill="none" xmlns="http://www.w3.org/2000/svg">
<path d="M11.6673 9.16406H6.66732M8.33398 12.4974H6.66732M13.334 5.83073H6.66732M16.6673 8.7474V5.66406C16.6673 4.26393 16.6673 3.56387 16.3948 3.02909C16.1552 2.55868 15.7727 2.17623 15.3023 1.93655C14.7675 1.66406 14.0674 1.66406 12.6673 1.66406H7.33398C5.93385 1.66406 5.23379 1.66406 4.69901 1.93655C4.2286 2.17623 3.84615 2.55868 3.60647 3.02909C3.33398 3.56387 3.33398 4.26393 3.33398 5.66406V14.3307C3.33398 15.7309 3.33398 16.4309 3.60647 16.9657C3.84615 17.4361 4.2286 17.8186 4.69901 18.0582C5.23379 18.3307 5.93385 18.3307 7.33398 18.3307H9.58398M18.334 18.3307L17.084 17.0807M17.9173 14.9974C17.9173 16.6082 16.6115 17.9141 15.0007 17.9141C13.3898 17.9141 12.084 16.6082 12.084 14.9974C12.084 13.3866 13.3898 12.0807 15.0007 12.0807C16.6115 12.0807 17.9173 13.3866 17.9173 14.9974Z" stroke="white" stroke-width="1.5" stroke-linecap="round" stroke-linejoin="round"/>
</svg>
