<svg width="20" height="20" viewBox="0 0 20 20" fill="none" xmlns="http://www.w3.org/2000/svg">
<g clip-path="url(#clip0_2020_33278)">
<path d="M7.57435 7.4974C7.77027 6.94045 8.15698 6.47082 8.66598 6.17167C9.17498 5.87253 9.77343 5.76318 10.3553 5.86299C10.9372 5.9628 11.465 6.26533 11.8452 6.717C12.2255 7.16867 12.4336 7.74033 12.4327 8.33073C12.4327 9.9974 9.93268 10.8307 9.93268 10.8307M9.99935 14.1641H10.0077M18.3327 9.9974C18.3327 14.5998 14.6017 18.3307 9.99935 18.3307C5.39698 18.3307 1.66602 14.5998 1.66602 9.9974C1.66602 5.39502 5.39698 1.66406 9.99935 1.66406C14.6017 1.66406 18.3327 5.39502 18.3327 9.9974Z" stroke="white" stroke-width="1.5" stroke-linecap="round" stroke-linejoin="round"/>
</g>
<defs>
<clipPath id="clip0_2020_33278">
<rect width="20" height="20" fill="white"/>
</clipPath>
</defs>
</svg>
