<svg width="19" height="19" viewBox="0 0 19 19" fill="none" xmlns="http://www.w3.org/2000/svg">
<g clip-path="url(#clip0_2020_33282)">
<path d="M3.16734 17.2747C3.64438 17.4193 4.28871 17.4193 5.38398 17.4193H13.6173C14.7126 17.4193 15.3569 17.4193 15.834 17.2747M3.16734 17.2747C3.06505 17.2437 2.97046 17.2061 2.88076 17.1604C2.43387 16.9327 2.07054 16.5694 1.84284 16.1225C1.58398 15.6145 1.58398 14.9494 1.58398 13.6193V5.38594C1.58398 4.05581 1.58398 3.39075 1.84284 2.88271C2.07054 2.43583 2.43387 2.0725 2.88076 1.8448C3.3888 1.58594 4.05386 1.58594 5.38398 1.58594H13.6173C14.9474 1.58594 15.6125 1.58594 16.1205 1.8448C16.5674 2.0725 16.9308 2.43583 17.1585 2.88271C17.4173 3.39075 17.4173 4.05581 17.4173 5.38594V13.6193C17.4173 14.9494 17.4173 15.6145 17.1585 16.1225C16.9308 16.5694 16.5674 16.9327 16.1205 17.1604C16.0308 17.2061 15.9362 17.2437 15.834 17.2747M3.16734 17.2747C3.1676 16.634 3.17144 16.295 3.22816 16.0098C3.47804 14.7536 4.46001 13.7717 5.7162 13.5218C6.02209 13.4609 6.38995 13.4609 7.12565 13.4609H11.8757C12.6114 13.4609 12.9792 13.4609 13.2851 13.5218C14.5413 13.7717 15.5233 14.7536 15.7731 16.0098C15.8299 16.295 15.8337 16.634 15.834 17.2747M12.6673 7.52344C12.6673 9.27234 11.2496 10.6901 9.50065 10.6901C7.75175 10.6901 6.33398 9.27234 6.33398 7.52344C6.33398 5.77454 7.75175 4.35677 9.50065 4.35677C11.2496 4.35677 12.6673 5.77454 12.6673 7.52344Z" stroke="white" stroke-width="1.5" stroke-linecap="round" stroke-linejoin="round"/>
</g>
<defs>
<clipPath id="clip0_2020_33282">
<rect width="19" height="19" fill="white"/>
</clipPath>
</defs>
</svg>
