<svg width="19" height="19" viewBox="0 0 19 19" fill="none" xmlns="http://www.w3.org/2000/svg">
<path d="M15.6344 3.96104C16.7565 5.52081 17.4173 7.43459 17.4173 9.50271C17.4173 11.5708 16.7565 13.4846 15.6344 15.0444M12.4657 6.33604C13.0918 7.23366 13.459 8.3253 13.459 9.50271C13.459 10.6801 13.0918 11.7718 12.4657 12.6694M7.62782 3.45888L5.12165 5.96504C4.98473 6.10196 4.91627 6.17042 4.83638 6.21938C4.76554 6.26279 4.68832 6.29478 4.60754 6.31417C4.51643 6.33604 4.41961 6.33604 4.22598 6.33604H2.85065C2.40728 6.33604 2.18559 6.33604 2.01624 6.42233C1.86728 6.49823 1.74617 6.61934 1.67027 6.7683C1.58398 6.93765 1.58398 7.15933 1.58398 7.60271V11.4027C1.58398 11.8461 1.58398 12.0678 1.67027 12.2371C1.74617 12.3861 1.86728 12.5072 2.01624 12.5831C2.18559 12.6694 2.40728 12.6694 2.85065 12.6694H4.22598C4.41961 12.6694 4.51643 12.6694 4.60754 12.6913C4.68832 12.7106 4.76554 12.7426 4.83638 12.786C4.91627 12.835 4.98473 12.9035 5.12165 13.0404L7.62782 15.5465C7.96695 15.8857 8.13651 16.0552 8.28209 16.0667C8.40841 16.0766 8.53185 16.0255 8.61414 15.9292C8.70898 15.8181 8.70898 15.5783 8.70898 15.0987V3.90671C8.70898 3.42711 8.70898 3.1873 8.61414 3.07626C8.53185 2.97991 8.40841 2.92878 8.28209 2.93872C8.13651 2.95018 7.96695 3.11975 7.62782 3.45888Z" stroke="white" stroke-width="1.5" stroke-linecap="round" stroke-linejoin="round"/>
</svg>
